<svg xmlns="http://www.w3.org/2000/svg" viewBox="0 0 424.93 38.39"><defs><style>.cls-1{font-size:36.84px;fill:#211613;font-family:BigNoodleTitling, BigNoodleTitling;}.cls-2{fill:#231815;}.cls-3{fill:#838383;}.cls-4{fill:none;stroke:#231815;stroke-miterlimit:10;}</style></defs><title>資產 8</title><g id="圖層_2" data-name="圖層 2"><g id="圖層_2-2" data-name="圖層 2"><text class="cls-1" transform="translate(0 31.65)">SEARCH</text><text class="cls-1" transform="translate(333.09 31.65)">contact</text><path class="cls-2" d="M270.85,28.85l-12.28-8.5a3,3,0,1,0-3.4,4.91l12.28,8.5a3,3,0,0,0,3.4-4.91Z"/><path class="cls-3" d="M251.76,6.88a10.21,10.21,0,1,0,2.59,14.21A10.22,10.22,0,0,0,251.76,6.88Zm1,13.08a8.23,8.23,0,1,1-2.08-11.45A8.23,8.23,0,0,1,252.72,20Z"/><path class="cls-2" d="M251.76,6.88l.37-.54a10.86,10.86,0,1,0-6.19,19.8,10.87,10.87,0,0,0,6.19-19.8l-.37.54-.37.54a9.54,9.54,0,0,1,4.11,7.87,9.43,9.43,0,0,1-1.69,5.42,9.54,9.54,0,1,1-2.42-13.29Zm1,13.08-.54-.37a7.56,7.56,0,1,1,1.35-4.3,7.57,7.57,0,0,1-1.35,4.3l.54.37.54.38A8.88,8.88,0,0,0,251,8a8.88,8.88,0,1,0-5.07,16.18,8.91,8.91,0,0,0,7.32-3.82Z"/><line class="cls-4" x1="88.09" y1="30.16" x2="232.61" y2="30.16"/></g></g></svg>